<svg enable-background="new 0 0 511.989 511.989" viewBox="0 0 511.989 511.989" xmlns="http://www.w3.org/2000/svg"><path d="m48.641 496.629c-2.726 0-5.46-1.031-7.539-3.123l-22.632-22.625c-2-2-3.125-4.703-3.125-7.531s1.125-5.547 3.125-7.547l79.194-79.201c2-2 4.719-3.125 7.546-3.125 2.828 0 5.539 1.125 7.539 3.125l22.625 22.623c4.172 4.172 4.172 10.922 0 15.096l-79.193 79.186c-2.079 2.091-4.813 3.122-7.54 3.122z" fill="#965353"/><path d="m63.727 448.256c-7.055-7.047-16.429-10.938-26.398-10.938-9.976 0-19.351 3.891-26.398 10.938-14.554 14.562-14.554 38.25 0 52.795 7.047 7.047 16.422 10.938 26.398 10.938 9.969 0 19.344-3.891 26.398-10.938 14.555-14.545 14.555-38.233 0-52.795z" fill="#ffce54"/><path d="m59.954 414.32 37.71 37.701 15.085-15.078-37.71-37.719z" fill="#7f4545"/><path d="m309.323 362.664c0 5.891-4.781 10.656-10.672 10.656s-10.672-4.766-10.672-10.656 4.781-10.672 10.672-10.672 10.672 4.781 10.672 10.672z" fill="#48cfad"/><path d="m74.657 213.324c0 5.891-4.773 10.672-10.664 10.672s-10.664-4.781-10.664-10.672 4.773-10.656 10.664-10.656c5.89-.001 10.664 4.765 10.664 10.656z" fill="#5d9cec"/><path d="m501.319 191.996c0 5.89-4.781 10.671-10.672 10.671s-10.671-4.781-10.671-10.671c0-5.891 4.78-10.672 10.671-10.672s10.672 4.781 10.672 10.672z" fill="#a0d468"/><path d="m95.992 63.999c0 5.891-4.773 10.671-10.664 10.671s-10.672-4.781-10.672-10.671 4.781-10.672 10.672-10.672 10.664 4.781 10.664 10.672z" fill="#ac92eb"/><path d="m266.66 42.671c0 5.89-4.781 10.656-10.671 10.656-5.891 0-10.665-4.766-10.665-10.656 0-5.891 4.773-10.672 10.665-10.672 5.89 0 10.671 4.781 10.671 10.672z" fill="#ed5564"/><path d="m373.321 469.318c0 5.891-4.781 10.672-10.672 10.672s-10.672-4.781-10.672-10.672 4.781-10.656 10.672-10.656 10.672 4.766 10.672 10.656z" fill="#ffce54"/><path d="m447.976 319.992v-10.672c0-5.891-4.766-10.654-10.656-10.654s-10.671 4.764-10.671 10.654v10.672c-5.891 0-10.672 4.781-10.672 10.672s4.781 10.656 10.672 10.656v10.672c0 5.891 4.78 10.672 10.671 10.672s10.656-4.781 10.656-10.672v-10.672c5.891 0 10.672-4.766 10.672-10.656s-4.781-10.672-10.672-10.672z" fill="#5d9cec"/><path d="m191.99 149.325v-10.656c0-5.891-4.773-10.672-10.664-10.672s-10.672 4.781-10.672 10.672v10.656c-5.891 0-10.664 4.781-10.664 10.671 0 5.891 4.773 10.672 10.664 10.672v10.656c0 5.891 4.781 10.672 10.672 10.672s10.664-4.781 10.664-10.672v-10.656c5.891 0 10.664-4.781 10.664-10.672 0-5.89-4.773-10.671-10.664-10.671z" fill="#fc6e51"/><path d="m501.319 21.327v-10.656c0-5.89-4.781-10.671-10.672-10.671s-10.671 4.781-10.671 10.671v10.656c-5.891 0-10.656 4.781-10.656 10.672s4.766 10.672 10.656 10.672v10.656c0 5.891 4.78 10.672 10.671 10.672s10.672-4.781 10.672-10.672v-10.656c5.89 0 10.655-4.781 10.655-10.672s-4.765-10.672-10.655-10.672z" fill="#48cfad"/><path d="m161.779 406.131c-2.835 0-5.546-1.125-7.546-3.125l-45.249-45.264c-2.008-2-3.125-4.703-3.125-7.531s1.117-5.547 3.125-7.547l246.665-246.666c1.625-1.625 3.75-2.688 6.031-3.016l52.797-7.547c3.328-.469 6.672.641 9.047 3.016s3.499 5.734 3.016 9.062l-7.547 52.795c-.312 2.281-1.375 4.391-3.016 6.031l-246.659 246.667c-2 2-4.711 3.125-7.539 3.125z" fill="#ffce54"/><path d="m139.147 383.506c-2.727 0-5.461-1.047-7.539-3.123-4.164-4.172-4.164-10.922 0-15.094l186.324-186.324c4.172-4.172 10.922-4.172 15.077 0 4.172 4.157 4.172 10.922 0 15.078l-186.316 186.34c-2.085 2.076-4.811 3.123-7.546 3.123z" fill="#f6bb42"/><path d="m199.49 418.086-105.592-105.594c-2.43-2.422-5.867-3.531-9.257-2.984-3.383.547-6.297 2.688-7.828 5.766l-15.085 30.156c-2.055 4.109-1.25 9.078 2 12.312l90.505 90.514c2.047 2.047 4.781 3.125 7.546 3.125 1.617 0 3.25-.359 4.766-1.125l30.172-15.078c3.062-1.547 5.21-4.453 5.757-7.844.547-3.375-.562-6.828-2.984-9.248z" fill="#ed5564"/></svg>