<?xml version="1.0" encoding="iso-8859-1"?>
<!-- Generator: Adobe Illustrator 19.0.0, SVG Export Plug-In . SVG Version: 6.00 Build 0)  -->
<svg version="1.1" id="Layer_1" xmlns="http://www.w3.org/2000/svg" xmlns:xlink="http://www.w3.org/1999/xlink" x="0px" y="0px"
	 viewBox="0 0 511.989 511.989" style="enable-background:new 0 0 511.989 511.989;" xml:space="preserve">
<path style="fill:#965353;" d="M48.641,496.629c-2.726,0-5.46-1.031-7.539-3.123L18.47,470.881c-2-2-3.125-4.703-3.125-7.531
	s1.125-5.547,3.125-7.547l79.194-79.201c2-2,4.719-3.125,7.546-3.125c2.828,0,5.539,1.125,7.539,3.125l22.625,22.623
	c4.172,4.172,4.172,10.922,0,15.096l-79.193,79.186C54.102,495.598,51.368,496.629,48.641,496.629z"/>
<path style="fill:#FFCE54;" d="M63.727,448.256c-7.055-7.047-16.429-10.938-26.398-10.938c-9.976,0-19.351,3.891-26.398,10.938
	c-14.554,14.562-14.554,38.25,0,52.795c7.047,7.047,16.422,10.938,26.398,10.938c9.969,0,19.344-3.891,26.398-10.938
	C78.282,486.506,78.282,462.818,63.727,448.256z"/>
<polygon style="fill:#7F4545;" points="59.954,414.32 97.664,452.021 112.749,436.943 75.039,399.224 "/>
<path style="fill:#48CFAD;" d="M309.323,362.664c0,5.891-4.781,10.656-10.672,10.656s-10.672-4.766-10.672-10.656
	s4.781-10.672,10.672-10.672S309.323,356.773,309.323,362.664z"/>
<path style="fill:#5D9CEC;" d="M74.657,213.324c0,5.891-4.773,10.672-10.664,10.672s-10.664-4.781-10.664-10.672
	s4.773-10.656,10.664-10.656C69.883,202.667,74.657,207.433,74.657,213.324z"/>
<path style="fill:#A0D468;" d="M501.319,191.996c0,5.89-4.781,10.671-10.672,10.671s-10.671-4.781-10.671-10.671
	c0-5.891,4.78-10.672,10.671-10.672S501.319,186.105,501.319,191.996z"/>
<path style="fill:#AC92EB;" d="M95.992,63.999c0,5.891-4.773,10.671-10.664,10.671s-10.672-4.781-10.672-10.671
	s4.781-10.672,10.672-10.672C91.219,53.327,95.992,58.108,95.992,63.999z"/>
<path style="fill:#ED5564;" d="M266.66,42.671c0,5.89-4.781,10.656-10.671,10.656c-5.891,0-10.665-4.766-10.665-10.656
	c0-5.891,4.773-10.672,10.665-10.672C261.879,31.999,266.66,36.78,266.66,42.671z"/>
<path style="fill:#FFCE54;" d="M373.321,469.318c0,5.891-4.781,10.672-10.672,10.672s-10.672-4.781-10.672-10.672
	s4.781-10.656,10.672-10.656S373.321,463.428,373.321,469.318z"/>
<path style="fill:#5D9CEC;" d="M447.976,319.992V309.32c0-5.891-4.766-10.654-10.656-10.654s-10.671,4.764-10.671,10.654v10.672
	c-5.891,0-10.672,4.781-10.672,10.672s4.781,10.656,10.672,10.656v10.672c0,5.891,4.78,10.672,10.671,10.672
	s10.656-4.781,10.656-10.672V341.32c5.891,0,10.672-4.766,10.672-10.656S453.867,319.992,447.976,319.992z"/>
<path style="fill:#FC6E51;" d="M191.99,149.325v-10.656c0-5.891-4.773-10.672-10.664-10.672s-10.672,4.781-10.672,10.672v10.656
	c-5.891,0-10.664,4.781-10.664,10.671c0,5.891,4.773,10.672,10.664,10.672v10.656c0,5.891,4.781,10.672,10.672,10.672
	s10.664-4.781,10.664-10.672v-10.656c5.891,0,10.664-4.781,10.664-10.672C202.654,154.106,197.881,149.325,191.99,149.325z"/>
<path style="fill:#48CFAD;" d="M501.319,21.327V10.671c0-5.89-4.781-10.671-10.672-10.671s-10.671,4.781-10.671,10.671v10.656
	c-5.891,0-10.656,4.781-10.656,10.672s4.766,10.672,10.656,10.672v10.656c0,5.891,4.78,10.672,10.671,10.672
	s10.672-4.781,10.672-10.672V42.671c5.89,0,10.655-4.781,10.655-10.672S507.209,21.327,501.319,21.327z"/>
<path style="fill:#FFCE54;" d="M161.779,406.131c-2.835,0-5.546-1.125-7.546-3.125l-45.249-45.264c-2.008-2-3.125-4.703-3.125-7.531
	s1.117-5.547,3.125-7.547L355.649,95.998c1.625-1.625,3.75-2.688,6.031-3.016l52.797-7.547c3.328-0.469,6.672,0.641,9.047,3.016
	s3.499,5.734,3.016,9.062l-7.547,52.795c-0.312,2.281-1.375,4.391-3.016,6.031L169.318,403.006
	C167.318,405.006,164.607,406.131,161.779,406.131z"/>
<path style="fill:#F6BB42;" d="M139.147,383.506c-2.727,0-5.461-1.047-7.539-3.123c-4.164-4.172-4.164-10.922,0-15.094
	l186.324-186.324c4.172-4.172,10.922-4.172,15.077,0c4.172,4.157,4.172,10.922,0,15.078l-186.316,186.34
	C144.608,382.459,141.882,383.506,139.147,383.506z"/>
<path style="fill:#ED5564;" d="M199.49,418.086L93.898,312.492c-2.43-2.422-5.867-3.531-9.257-2.984
	c-3.383,0.547-6.297,2.688-7.828,5.766L61.728,345.43c-2.055,4.109-1.25,9.078,2,12.312l90.505,90.514
	c2.047,2.047,4.781,3.125,7.546,3.125c1.617,0,3.25-0.359,4.766-1.125l30.172-15.078c3.062-1.547,5.21-4.453,5.757-7.844
	C203.021,423.959,201.912,420.506,199.49,418.086z"/>
<g>
</g>
<g>
</g>
<g>
</g>
<g>
</g>
<g>
</g>
<g>
</g>
<g>
</g>
<g>
</g>
<g>
</g>
<g>
</g>
<g>
</g>
<g>
</g>
<g>
</g>
<g>
</g>
<g>
</g>
</svg>
